<svg width="14" height="14" viewBox="0 0 14 14" fill="none" xmlns="http://www.w3.org/2000/svg">
<path d="M5.5 13.5V9.995C5.5 9.75 5.75 9.5 6 9.5H8C8.25 9.5 8.5 9.75 8.5 10V13.5C8.5 13.6326 8.55268 13.7598 8.64645 13.8536C8.74022 13.9473 8.86739 14 9 14H13C13.1326 14 13.2598 13.9473 13.3536 13.8536C13.4473 13.7598 13.5 13.6326 13.5 13.5V6.5C13.5001 6.4343 13.4873 6.36921 13.4622 6.30847C13.4372 6.24773 13.4004 6.19252 13.354 6.146L12 4.793V1.5C12 1.36739 11.9473 1.24022 11.8536 1.14645C11.7598 1.05268 11.6326 1 11.5 1H10.5C10.3674 1 10.2402 1.05268 10.1464 1.14645C10.0527 1.24022 10 1.36739 10 1.5V2.793L7.354 0.146001C7.30756 0.0994379 7.25238 0.0624951 7.19163 0.0372886C7.13089 0.0120822 7.06577 -0.000892639 7 -0.000892639C6.93423 -0.000892639 6.86911 0.0120822 6.80837 0.0372886C6.74762 0.0624951 6.69245 0.0994379 6.646 0.146001L0.646001 6.146C0.599599 6.19252 0.562821 6.24773 0.537769 6.30847C0.512717 6.36921 0.499883 6.4343 0.500001 6.5V13.5C0.500001 13.6326 0.552679 13.7598 0.646447 13.8536C0.740216 13.9473 0.867393 14 1 14H5C5.13261 14 5.25979 13.9473 5.35355 13.8536C5.44732 13.7598 5.5 13.6326 5.5 13.5Z" fill="#0B265A"/>
</svg>
